<?xml version="1.0" encoding="UTF-8" standalone="no"?>
<!DOCTYPE svg PUBLIC "-//W3C//DTD SVG 1.1//EN" "http://www.w3.org/Graphics/SVG/1.1/DTD/svg11.dtd">
<svg width="100%" height="100%" viewBox="0 0 240 45" version="1.1" xmlns="http://www.w3.org/2000/svg" xmlns:xlink="http://www.w3.org/1999/xlink" xml:space="preserve" xmlns:serif="http://www.serif.com/" style="fill-rule:evenodd;clip-rule:evenodd;stroke-linejoin:round;stroke-miterlimit:2;">
    <g id="Artboard1" transform="matrix(0.805369,0,0,1.12218,0,0)">
        <rect x="0" y="0" width="298" height="40.101" style="fill:none;"/>
        <g transform="matrix(1.24167,0,0,0.891125,0,0.0891125)">
            <g transform="matrix(0.0449725,0,0,0.0449725,-0.639059,-0.576612)">
                <g transform="matrix(1,0,0,1,-1124,-0.1)">
                    <path d="M2132.2,487.908C2132.58,495.896 2132.77,503.926 2132.77,512C2132.77,707.603 2020.51,877.086 1857.24,958.965L1665.12,954.997L2132.2,487.908Z" style="fill:rgb(198,160,246);"/>
                    <path d="M2085.3,298.968C2112.51,356.723 2129.01,420.576 2132.2,487.908L1665.12,954.997L1434.04,950.225L2085.3,298.968Z" style="fill:rgb(125,196,228);"/>
                    <path d="M1988.23,160.193C2027.96,200.346 2060.93,247.231 2085.3,298.968L1434.04,950.225L1395.95,949.438L1395.95,949.583C1354.6,926.694 1316.82,898.062 1283.68,864.744L1988.23,160.193Z" style="fill:rgb(166,218,149);"/>
                    <path d="M1850.75,61.837C1902.07,86.65 1948.51,120.052 1988.23,160.193L1283.68,864.744C1243.88,824.724 1210.79,777.953 1186.28,726.299L1850.75,61.837Z" style="fill:rgb(238,212,159);"/>
                    <path d="M1663.28,13.462C1730.13,17.17 1793.49,34.161 1850.75,61.837L1186.28,726.299C1158.95,668.697 1142.29,605.022 1138.87,537.868L1663.28,13.462Z" style="fill:rgb(245,169,127);"/>
                    <path d="M1138.87,537.868C1138.43,529.282 1138.21,520.667 1138.21,512C1138.21,236.425 1361.04,12.694 1635.49,12.694C1644.83,12.694 1654.1,12.953 1663.28,13.462L1138.87,537.868Z" style="fill:rgb(237,135,150);"/>
                </g>
                <g transform="matrix(1,0,0,1,0,-0.1)">
                    <path d="M271.955,949.438C279.395,892.409 290.398,842.511 305.004,799.704C234.699,763.542 182.723,702.731 170.611,614.916C160.049,538.379 177.516,449.159 223.01,385.92C211.834,343.483 196.591,261.782 207.694,215.395C210.62,203.165 221.694,194.973 234.245,195.749C293.52,199.435 341.59,222.738 380.37,267.882C453.337,240.658 545.907,241.097 606.147,258.739C637.672,214.81 675.062,191.097 724.668,178.94C736.327,176.073 748.059,181.413 753.574,192.077C775.809,235.114 778.165,295.574 766.828,345.808C909.997,484.4 873.397,686.215 714.545,782.15C726.196,839.096 732.671,898.028 733.939,958.979C667.104,992.464 591.728,1011.31 512,1011.31C424.991,1011.31 343.166,988.866 271.955,949.438Z" style="fill:rgb(23,22,34);"/>
                </g>
                <g transform="matrix(1,0,0,1,0,-0.1)">
                    <path d="M677.608,391.128C711.297,389.094 740.321,411.579 749.259,442.46C750.151,445.561 748.908,448.706 746.128,450.315C743.334,451.924 739.911,451.471 737.614,449.174C722.635,434.224 701.862,425.49 679.671,426.631C657.669,427.758 638.652,438.334 626.115,454.221C624.243,456.605 621.083,457.351 618.304,456.049C615.524,454.748 614.018,451.822 614.515,448.72C619.386,418.132 644.445,393.132 677.608,391.128Z" style="fill:rgb(194,203,241);"/>
                </g>
                <g transform="matrix(1,0,0,1,0,-0.1)">
                    <path d="M458.735,396.423C477.869,395.238 495.789,401.426 510.199,412.617C524.739,423.91 535.74,440.251 540.86,459.092C541.884,462.896 540.421,466.758 537.218,468.703C534.014,470.634 530.093,470.034 527.475,467.24C510.316,448.969 486.515,438.246 461.09,439.548C436.032,440.836 414.381,453.606 400.192,472.77C398.027,475.725 394.472,476.588 391.327,474.979C388.182,473.37 386.412,469.786 386.953,466.099C389.659,447.579 398.158,430.801 410.563,418.366C423.071,405.83 439.747,397.608 458.735,396.423Z" style="fill:rgb(194,203,241);"/>
                </g>
                <g transform="matrix(1,0,0,1,0,-0.1)">
                    <path d="M603.266,511.771C613.549,511.112 623.526,510.469 633.166,509.868C636.355,509.678 639.457,512.311 641.051,516.524C642.646,520.737 642.324,525.33 640.276,528.446C627.447,547.961 619.254,557.645 609.761,558.83C599.974,560.044 588.447,552.144 567.645,535.673C563.9,532.732 561.808,527.612 562.276,522.595C562.715,517.563 565.685,514.169 569.766,513.905C581.323,513.159 592.499,512.457 603.266,511.771Z" style="fill:rgb(194,203,241);"/>
                </g>
                <g transform="matrix(1,0,0,1,0,-0.1)">
                    <path d="M609.936,582.44C612.364,579.163 616.153,578.476 619.386,580.685C629.641,587.794 638.52,590.31 646.113,588.599C653.544,586.902 661.502,585.264 667.763,575.448C677.52,560.176 680.226,569.83 675.297,582.104C672.254,589.638 666.49,598.459 658.444,604.31C650.194,610.293 639.237,613.38 625.75,608.655C621.054,607.016 616.329,608.099 612.291,611.756C602.9,620.255 591.519,625.009 579.699,625.2C567.338,625.404 554.172,620.679 542.206,609.825C528.938,597.786 529.011,584.561 550.573,597.932C563.198,605.802 574.184,603.505 583.78,601.648C593.128,599.804 601.817,593.397 609.936,582.44Z" style="fill:rgb(194,203,241);"/>
                </g>
                <g transform="matrix(1,0,0,1,0,-0.1)">
                    <path d="M603.587,851.591C593.625,872.232 569.4,888.909 548.452,890.62C546.17,890.796 544.122,889.728 542.981,887.739C526.305,858.686 524.491,826.708 530.035,799.821C530.371,798.197 531.264,796.924 532.683,796.061C534.116,795.198 535.652,794.979 537.247,795.432C565.524,803.376 586.925,813.542 601.452,825.933C611.516,812.679 625.399,803.507 643.114,798.446C646.142,797.583 649.302,799.309 650.223,802.308C656.704,823.578 658.459,846.413 652.915,866.995C652.11,869.979 648.204,872.379 644.43,871.384C629.743,867.537 614.544,860.164 603.587,851.591Z" style="fill:rgb(228,140,156);"/>
                </g>
            </g>
            <g transform="matrix(1.29802,0,0,1.29802,-25.5367,12.4279)">
                <g transform="matrix(24,0,0,24,61.4421,16.4436)">
                    <path d="M0.381,0.018C0.435,0.018 0.483,0.008 0.526,-0.012C0.568,-0.032 0.603,-0.059 0.63,-0.094C0.656,-0.13 0.673,-0.171 0.679,-0.217L0.679,-0.221L0.555,-0.221L0.554,-0.218C0.549,-0.193 0.538,-0.17 0.522,-0.151C0.506,-0.132 0.486,-0.117 0.462,-0.107C0.438,-0.097 0.411,-0.091 0.381,-0.091C0.341,-0.091 0.306,-0.102 0.277,-0.123C0.248,-0.144 0.225,-0.174 0.209,-0.213C0.194,-0.252 0.186,-0.299 0.186,-0.352L0.186,-0.353C0.186,-0.406 0.194,-0.453 0.209,-0.492C0.225,-0.53 0.248,-0.56 0.277,-0.582C0.306,-0.603 0.341,-0.613 0.38,-0.613C0.41,-0.613 0.437,-0.607 0.461,-0.596C0.485,-0.585 0.505,-0.568 0.521,-0.548C0.538,-0.527 0.549,-0.503 0.555,-0.475L0.555,-0.473L0.678,-0.473L0.679,-0.477C0.673,-0.525 0.657,-0.567 0.63,-0.604C0.603,-0.641 0.568,-0.67 0.525,-0.691C0.482,-0.712 0.434,-0.722 0.38,-0.722C0.314,-0.722 0.256,-0.707 0.208,-0.677C0.16,-0.647 0.123,-0.605 0.096,-0.55C0.07,-0.495 0.057,-0.429 0.057,-0.353L0.057,-0.352C0.057,-0.276 0.07,-0.21 0.096,-0.155C0.123,-0.1 0.16,-0.057 0.208,-0.027C0.257,0.003 0.314,0.018 0.381,0.018Z" style="fill:rgb(202,211,245);fill-rule:nonzero;"/>
                </g>
                <g transform="matrix(24,0,0,24,77.907,16.4436)">
                    <path d="M0.22,0.009C0.243,0.009 0.265,0.006 0.285,-0.001C0.305,-0.007 0.323,-0.017 0.338,-0.029C0.354,-0.041 0.366,-0.056 0.376,-0.073L0.384,-0.073L0.384,-0L0.505,-0L0.505,-0.365C0.505,-0.402 0.496,-0.434 0.48,-0.461C0.463,-0.488 0.439,-0.509 0.407,-0.523C0.375,-0.537 0.336,-0.544 0.29,-0.544C0.248,-0.544 0.21,-0.538 0.178,-0.525C0.146,-0.513 0.12,-0.496 0.101,-0.473C0.081,-0.451 0.069,-0.425 0.065,-0.394L0.065,-0.39L0.179,-0.39L0.18,-0.392C0.186,-0.41 0.198,-0.423 0.216,-0.433C0.233,-0.443 0.256,-0.447 0.284,-0.447C0.317,-0.447 0.342,-0.44 0.359,-0.426C0.376,-0.412 0.384,-0.391 0.384,-0.365L0.384,-0.196C0.384,-0.175 0.379,-0.156 0.368,-0.139C0.357,-0.122 0.342,-0.109 0.322,-0.099C0.303,-0.089 0.281,-0.084 0.257,-0.084C0.23,-0.084 0.208,-0.091 0.19,-0.104C0.173,-0.116 0.164,-0.134 0.164,-0.157L0.164,-0.158C0.164,-0.18 0.172,-0.197 0.189,-0.209C0.205,-0.222 0.23,-0.229 0.264,-0.231L0.444,-0.243L0.444,-0.323L0.247,-0.311C0.204,-0.308 0.167,-0.3 0.137,-0.287C0.107,-0.274 0.084,-0.256 0.068,-0.234C0.052,-0.211 0.044,-0.184 0.044,-0.152L0.044,-0.151C0.044,-0.118 0.052,-0.09 0.067,-0.066C0.082,-0.042 0.103,-0.024 0.13,-0.011C0.156,0.002 0.186,0.009 0.22,0.009Z" style="fill:rgb(202,211,245);fill-rule:nonzero;"/>
                </g>
                <g transform="matrix(24,0,0,24,89.9539,16.4436)">
                    <path d="M0.284,0.003C0.296,0.003 0.307,0.002 0.318,0.001C0.329,-0 0.339,-0.001 0.347,-0.003L0.347,-0.097C0.34,-0.096 0.334,-0.095 0.328,-0.095C0.322,-0.095 0.315,-0.094 0.306,-0.094C0.281,-0.094 0.263,-0.101 0.252,-0.113C0.24,-0.125 0.235,-0.144 0.235,-0.171L0.235,-0.44L0.347,-0.44L0.347,-0.533L0.235,-0.533L0.235,-0.665L0.111,-0.665L0.111,-0.533L0.028,-0.533L0.028,-0.44L0.111,-0.44L0.111,-0.142C0.111,-0.09 0.125,-0.054 0.152,-0.031C0.179,-0.009 0.223,0.003 0.284,0.003Z" style="fill:rgb(202,211,245);fill-rule:nonzero;"/>
                </g>
                <g transform="matrix(24,0,0,24,97.1843,16.4436)">
                    <path d="M0.074,0.177L0.196,0.177L0.196,-0.085L0.204,-0.085C0.213,-0.066 0.226,-0.049 0.242,-0.035C0.258,-0.021 0.277,-0.01 0.298,-0.003C0.319,0.005 0.342,0.009 0.366,0.009C0.411,0.009 0.45,-0.002 0.483,-0.025C0.516,-0.047 0.541,-0.079 0.559,-0.12C0.576,-0.161 0.585,-0.21 0.585,-0.266L0.585,-0.267C0.585,-0.324 0.576,-0.372 0.558,-0.413C0.54,-0.454 0.515,-0.486 0.482,-0.509C0.45,-0.531 0.411,-0.542 0.366,-0.542C0.341,-0.542 0.318,-0.539 0.297,-0.531C0.276,-0.524 0.258,-0.513 0.242,-0.5C0.227,-0.486 0.214,-0.469 0.204,-0.45L0.196,-0.45L0.196,-0.533L0.074,-0.533L0.074,0.177ZM0.328,-0.094C0.301,-0.094 0.277,-0.101 0.257,-0.115C0.237,-0.128 0.221,-0.148 0.21,-0.174C0.199,-0.2 0.194,-0.231 0.194,-0.266L0.194,-0.267C0.194,-0.303 0.199,-0.334 0.21,-0.36C0.221,-0.385 0.236,-0.405 0.257,-0.419C0.277,-0.433 0.301,-0.44 0.328,-0.44C0.356,-0.44 0.38,-0.433 0.4,-0.419C0.419,-0.405 0.435,-0.386 0.445,-0.36C0.456,-0.334 0.462,-0.303 0.462,-0.267L0.462,-0.266C0.462,-0.231 0.456,-0.2 0.445,-0.174C0.435,-0.148 0.419,-0.128 0.4,-0.114C0.38,-0.101 0.356,-0.094 0.328,-0.094Z" style="fill:rgb(202,211,245);fill-rule:nonzero;"/>
                </g>
                <g transform="matrix(24,0,0,24,110.368,16.4436)">
                    <path d="M0.074,0.177L0.196,0.177L0.196,-0.085L0.204,-0.085C0.213,-0.066 0.226,-0.049 0.242,-0.035C0.258,-0.021 0.277,-0.01 0.298,-0.003C0.319,0.005 0.342,0.009 0.366,0.009C0.411,0.009 0.45,-0.002 0.483,-0.025C0.516,-0.047 0.541,-0.079 0.559,-0.12C0.576,-0.161 0.585,-0.21 0.585,-0.266L0.585,-0.267C0.585,-0.324 0.576,-0.372 0.558,-0.413C0.54,-0.454 0.515,-0.486 0.482,-0.509C0.45,-0.531 0.411,-0.542 0.366,-0.542C0.341,-0.542 0.318,-0.539 0.297,-0.531C0.276,-0.524 0.258,-0.513 0.242,-0.5C0.227,-0.486 0.214,-0.469 0.204,-0.45L0.196,-0.45L0.196,-0.533L0.074,-0.533L0.074,0.177ZM0.328,-0.094C0.301,-0.094 0.277,-0.101 0.257,-0.115C0.237,-0.128 0.221,-0.148 0.21,-0.174C0.199,-0.2 0.194,-0.231 0.194,-0.266L0.194,-0.267C0.194,-0.303 0.199,-0.334 0.21,-0.36C0.221,-0.385 0.236,-0.405 0.257,-0.419C0.277,-0.433 0.301,-0.44 0.328,-0.44C0.356,-0.44 0.38,-0.433 0.4,-0.419C0.419,-0.405 0.435,-0.386 0.445,-0.36C0.456,-0.334 0.462,-0.303 0.462,-0.267L0.462,-0.266C0.462,-0.231 0.456,-0.2 0.445,-0.174C0.435,-0.148 0.419,-0.128 0.4,-0.114C0.38,-0.101 0.356,-0.094 0.328,-0.094Z" style="fill:rgb(202,211,245);fill-rule:nonzero;"/>
                </g>
                <g transform="matrix(24,0,0,24,123.552,16.4436)">
                    <path d="M0.251,0.011C0.277,0.011 0.3,0.007 0.32,-0C0.341,-0.008 0.358,-0.018 0.373,-0.032C0.388,-0.046 0.399,-0.062 0.407,-0.081L0.416,-0.081L0.416,-0L0.537,-0L0.537,-0.533L0.416,-0.533L0.416,-0.222C0.416,-0.202 0.413,-0.184 0.408,-0.168C0.403,-0.152 0.395,-0.138 0.385,-0.127C0.375,-0.116 0.362,-0.107 0.347,-0.101C0.332,-0.095 0.314,-0.092 0.295,-0.092C0.258,-0.092 0.232,-0.102 0.215,-0.123C0.199,-0.144 0.191,-0.175 0.191,-0.216L0.191,-0.533L0.069,-0.533L0.069,-0.188C0.069,-0.146 0.076,-0.11 0.09,-0.08C0.103,-0.051 0.124,-0.028 0.151,-0.013C0.178,0.003 0.211,0.011 0.251,0.011Z" style="fill:rgb(202,211,245);fill-rule:nonzero;"/>
                </g>
                <g transform="matrix(24,0,0,24,136.196,16.4436)">
                    <path d="M0.303,0.011C0.348,0.011 0.387,0.003 0.419,-0.012C0.452,-0.027 0.478,-0.049 0.497,-0.076C0.516,-0.103 0.529,-0.135 0.535,-0.171L0.535,-0.175L0.421,-0.175L0.42,-0.173C0.412,-0.145 0.399,-0.124 0.38,-0.109C0.36,-0.095 0.335,-0.088 0.303,-0.088C0.276,-0.088 0.252,-0.095 0.232,-0.109C0.213,-0.123 0.198,-0.144 0.187,-0.171C0.177,-0.198 0.171,-0.23 0.171,-0.268L0.171,-0.269C0.171,-0.306 0.177,-0.338 0.187,-0.364C0.197,-0.391 0.212,-0.411 0.232,-0.425C0.252,-0.439 0.275,-0.446 0.303,-0.446C0.336,-0.446 0.363,-0.437 0.383,-0.421C0.402,-0.404 0.415,-0.383 0.42,-0.357L0.421,-0.356L0.536,-0.356L0.535,-0.358C0.531,-0.394 0.519,-0.427 0.5,-0.455C0.48,-0.483 0.454,-0.505 0.421,-0.52C0.388,-0.536 0.348,-0.544 0.303,-0.544C0.249,-0.544 0.203,-0.533 0.165,-0.511C0.127,-0.489 0.098,-0.458 0.078,-0.416C0.058,-0.375 0.048,-0.326 0.048,-0.269L0.048,-0.268C0.048,-0.21 0.058,-0.16 0.078,-0.118C0.098,-0.077 0.128,-0.045 0.166,-0.023C0.204,-0 0.25,0.011 0.303,0.011Z" style="fill:rgb(202,211,245);fill-rule:nonzero;"/>
                </g>
                <g transform="matrix(24,0,0,24,148.219,16.4436)">
                    <path d="M0.303,0.011C0.348,0.011 0.387,0.003 0.419,-0.012C0.452,-0.027 0.478,-0.049 0.497,-0.076C0.516,-0.103 0.529,-0.135 0.535,-0.171L0.535,-0.175L0.421,-0.175L0.42,-0.173C0.412,-0.145 0.399,-0.124 0.38,-0.109C0.36,-0.095 0.335,-0.088 0.303,-0.088C0.276,-0.088 0.252,-0.095 0.232,-0.109C0.213,-0.123 0.198,-0.144 0.187,-0.171C0.177,-0.198 0.171,-0.23 0.171,-0.268L0.171,-0.269C0.171,-0.306 0.177,-0.338 0.187,-0.364C0.197,-0.391 0.212,-0.411 0.232,-0.425C0.252,-0.439 0.275,-0.446 0.303,-0.446C0.336,-0.446 0.363,-0.437 0.383,-0.421C0.402,-0.404 0.415,-0.383 0.42,-0.357L0.421,-0.356L0.536,-0.356L0.535,-0.358C0.531,-0.394 0.519,-0.427 0.5,-0.455C0.48,-0.483 0.454,-0.505 0.421,-0.52C0.388,-0.536 0.348,-0.544 0.303,-0.544C0.249,-0.544 0.203,-0.533 0.165,-0.511C0.127,-0.489 0.098,-0.458 0.078,-0.416C0.058,-0.375 0.048,-0.326 0.048,-0.269L0.048,-0.268C0.048,-0.21 0.058,-0.16 0.078,-0.118C0.098,-0.077 0.128,-0.045 0.166,-0.023C0.204,-0 0.25,0.011 0.303,0.011Z" style="fill:rgb(202,211,245);fill-rule:nonzero;"/>
                </g>
                <g transform="matrix(24,0,0,24,160.243,16.4436)">
                    <path d="M0.075,-0L0.197,-0L0.197,-0.533L0.075,-0.533L0.075,-0ZM0.137,-0.623C0.157,-0.623 0.174,-0.63 0.188,-0.644C0.202,-0.658 0.209,-0.675 0.209,-0.695C0.209,-0.715 0.202,-0.731 0.188,-0.745C0.174,-0.759 0.157,-0.766 0.137,-0.766C0.117,-0.766 0.1,-0.759 0.086,-0.745C0.071,-0.731 0.064,-0.715 0.064,-0.695C0.064,-0.675 0.071,-0.658 0.086,-0.644C0.1,-0.63 0.117,-0.623 0.137,-0.623Z" style="fill:rgb(202,211,245);fill-rule:nonzero;"/>
                </g>
                <g transform="matrix(24,0,0,24,165.188,16.4436)">
                    <path d="M0.074,-0L0.196,-0L0.196,-0.311C0.196,-0.338 0.2,-0.361 0.21,-0.38C0.219,-0.4 0.233,-0.415 0.25,-0.426C0.268,-0.436 0.289,-0.442 0.313,-0.442C0.35,-0.442 0.377,-0.431 0.394,-0.411C0.412,-0.39 0.42,-0.359 0.42,-0.317L0.42,-0L0.542,-0L0.542,-0.345C0.542,-0.409 0.526,-0.458 0.495,-0.492C0.463,-0.527 0.418,-0.544 0.358,-0.544C0.319,-0.544 0.287,-0.536 0.262,-0.52C0.236,-0.503 0.217,-0.481 0.204,-0.452L0.196,-0.452L0.196,-0.533L0.074,-0.533L0.074,-0Z" style="fill:rgb(202,211,245);fill-rule:nonzero;"/>
                </g>
                <g transform="matrix(24,0,0,24,182.755,16.4436)">
                    <path d="M0.376,0.018C0.436,0.018 0.487,0.007 0.53,-0.015C0.574,-0.037 0.607,-0.067 0.63,-0.106C0.654,-0.146 0.665,-0.191 0.665,-0.243L0.665,-0.705L0.54,-0.705L0.54,-0.253C0.54,-0.221 0.533,-0.192 0.521,-0.168C0.508,-0.144 0.49,-0.125 0.465,-0.112C0.441,-0.098 0.411,-0.091 0.376,-0.091C0.341,-0.091 0.312,-0.098 0.287,-0.112C0.263,-0.125 0.244,-0.144 0.231,-0.168C0.218,-0.192 0.212,-0.221 0.212,-0.253L0.212,-0.705L0.086,-0.705L0.086,-0.243C0.086,-0.191 0.098,-0.145 0.122,-0.106C0.145,-0.067 0.179,-0.037 0.222,-0.015C0.265,0.007 0.317,0.018 0.376,0.018Z" style="fill:rgb(202,211,245);fill-rule:nonzero;"/>
                </g>
                <g transform="matrix(24,0,0,24,199.466,16.4436)">
                    <rect x="0.087" y="-0.705" width="0.126" height="0.705" style="fill:rgb(202,211,245);fill-rule:nonzero;"/>
                </g>
            </g>
        </g>
    </g>
</svg>
